<?xml version="1.0" encoding="iso-8859-1"?>
<!-- Generator: Adobe Illustrator 16.0.0, SVG Export Plug-In . SVG Version: 6.00 Build 0)  -->
<!DOCTYPE svg PUBLIC "-//W3C//DTD SVG 1.1//EN" "http://www.w3.org/Graphics/SVG/1.1/DTD/svg11.dtd">
<svg version="1.1" id="Capa_1" xmlns="http://www.w3.org/2000/svg" xmlns:xlink="http://www.w3.org/1999/xlink" x="0px" y="0px"
     width="538.229px" height="538.229px" viewBox="0 0 538.229 538.229" style="enable-background:new 0 0 538.229 538.229;"
     xml:space="preserve">
<g>
	<g>
		<path d="M62.634,538.229h412.962c30.535,0,55.383-24.845,55.383-55.383V325.012c0-30.536-24.844-55.383-55.383-55.383h-57.525
			c2.025-3.768,3.938-7.626,5.723-11.58c24.33-7.996,41.756-30.937,41.756-57.623c0-20.793-10.572-39.707-27.398-50.732
			C424.495,63.495,354.557,0,270.732,0C186.906,0,116.97,63.495,103.31,149.698c-16.827,11.025-27.399,29.936-27.399,50.731
			c0,26.687,17.427,49.627,41.757,57.623c1.787,3.953,3.696,7.812,5.722,11.579H62.634c-30.536,0-55.383,24.844-55.383,55.383
			V482.85C7.254,513.385,32.098,538.229,62.634,538.229z M121.811,200.43c0-6.34,4.048-11.964,10.077-13.997l14.18-4.776
			l1.35-14.899C153.663,97.858,206.674,45.9,270.732,45.9c64.058,0,117.069,51.956,123.315,120.857l1.35,14.899l14.18,4.776
			c6.027,2.032,10.076,7.653,10.076,13.997c0,7.77-6.084,14.232-13.852,14.715l-14.891,0.924l-5.199,13.981
			c-19.008,51.096-64.137,84.111-114.977,84.111c-50.839,0-95.968-33.015-114.976-84.111l-5.199-13.981l-14.896-0.924
			C127.894,214.665,121.811,208.199,121.811,200.43z M53.154,325.015c0-5.227,4.253-9.483,9.483-9.483h86.77
			c0.529,0.159,1.303,0.496,1.723,0.756c32.675,28.676,74.557,44.462,117.987,44.462c43.431,0,85.316-15.786,117.99-44.465
			c0.424-0.257,1.197-0.594,1.725-0.753h86.766c5.229,0,9.482,4.254,9.482,9.483V482.85c0,5.227-4.254,9.482-9.482,9.482H62.634
			c-5.229,0-9.483-4.253-9.483-9.482V325.015H53.154z"/>
	</g>
</g>
    <g>
</g>
    <g>
</g>
    <g>
</g>
    <g>
</g>
    <g>
</g>
    <g>
</g>
    <g>
</g>
    <g>
</g>
    <g>
</g>
    <g>
</g>
    <g>
</g>
    <g>
</g>
    <g>
</g>
    <g>
</g>
    <g>
</g>
</svg>
